<svg xmlns="http://www.w3.org/2000/svg" viewBox="0 0 100 30.2" fill="#212121"><path d="M51.64 2.98V22.7c0 .26-.24.47-.53.47h-1.73c-.3 0-.53-.2-.53-.47V2.98c0-.23.24-.43.53-.43h1.73c.3 0 .53.2.53.43z"/><path d="M74.27 22.52c-.03.2-.2.37-.42.37H72.5c-.1 0-.22-.04-.3-.12s-.12-.2-.12-.3V8.73c-.02-.6-.18-1.18-.46-1.7s-.43-.83-1.16-1.36a4 4 0 0 0-.6-.35c-.15-.07-.3-.13-.47-.17-.32-.1-.65-.14-.98-.14h-8.15a3.4 3.4 0 0 0-1.15.17 3.5 3.5 0 0 0-1.02.55 4.2 4.2 0 0 0-.98 1.04c-.1.16-.2.32-.28.5-.22.47-.36.97-.4 1.48v13.73c0 .1-.04.22-.12.3s-.2.12-.3.12H54.6c-.1 0-.22-.04-.3-.12s-.12-.2-.12-.3V8.68c.03-.46.22-2.66 2.08-4.32 1.02-.9 2.3-1.44 3.66-1.55h8.8c.47.03.93.12 1.38.26.47.15.92.36 1.33.62.2.14.42.28.6.45a6.5 6.5 0 0 1 1.07 1.17c.57.78.94 1.68 1.08 2.63.04.28.07.56.07.84q0 6.12.01 12.24v1.48z" stroke="#212121" stroke-miterlimit="10" stroke-width=".28"/><path d="M46.46 8.73v14.04c-.03.22-.2.4-.42.46h0l-1.96.01c-.26-.03-.46-.25-.47-.5V18.4q0-4.82 0-9.64a3.3 3.3 0 0 0-.7-2.13c-.87-1.1-2.47-1.24-2.58-1.25s-.1 0-.7 0h-7.7a3.6 3.6 0 0 0-2.31.96 3.5 3.5 0 0 0-1.06 2.54q-.01 3.98-.01 7.97c0 .22.01 1.6 1.15 2.65.85.77 2.15.88 2.5.92.3.03.34.01 1.47 0h6.63c.27.03.48.26.48.54v1.76c0 .3-.22.52-.5.54H38.4a91.6 91.6 0 0 1-1.95-.02c-.46-.01-1.48-.02-2.88 0l-1.5.03a6.9 6.9 0 0 1-4.62-2.01c-1.55-1.64-1.7-3.58-1.74-4.1q.01-4.35.03-8.7a6.3 6.3 0 0 1 4.29-5.57c.8-.27 1.63-.38 2.46-.32q3.92 0 7.84.01a6.2 6.2 0 0 1 3.64 1.22 6.3 6.3 0 0 1 2.3 3.5 6.2 6.2 0 0 1 .19 1.49zm51.04 0v14.04c-.03.22-.2.4-.42.46h0l-1.95.01c-.26-.03-.46-.25-.47-.5V18.4q0-4.82 0-9.64a3.3 3.3 0 0 0-.7-2.13c-.87-1.1-2.47-1.24-2.58-1.25s-.1 0-.7 0H83a3.6 3.6 0 0 0-2.31.96 3.5 3.5 0 0 0-1.06 2.54q-.01 3.98-.01 7.97c0 .22.01 1.6 1.15 2.65.85.77 2.15.88 2.5.92.3.03.34.01 1.47 0h6.63c.27.03.48.26.48.54v1.76c0 .3-.22.52-.5.54H89.5a91.6 91.6 0 0 1-1.95-.02c-.46-.01-1.48-.02-2.88 0l-1.5.03a6.9 6.9 0 0 1-4.62-2.01c-1.55-1.64-1.7-3.58-1.74-4.1q.01-4.35.03-8.7a6.3 6.3 0 0 1 4.29-5.57c.8-.26 1.62-.37 2.44-.32q3.92 0 7.84.01a6.2 6.2 0 0 1 3.64 1.22 6.3 6.3 0 0 1 2.3 3.5 6.2 6.2 0 0 1 .19 1.49zm-74.27 0v18.42c0 .14-.06.28-.16.38s-.24.16-.38.16h-1.77c-.14 0-.28-.06-.4-.16s-.16-.24-.16-.4v-8.77q0-4.82 0-9.64a3.3 3.3 0 0 0-.7-2.13c-.57-.72-1.6-1.18-2.58-1.25-.04 0-.07 0-.44-.01-1.47-.01-2.4 0-3.6 0H8.88c-.38.01-.76.07-1.13.18a4 4 0 0 0-1.34.79 3.5 3.5 0 0 0-1.06 2.54q-.01 3.98-.01 7.97c0 .22.01 1.6 1.15 2.65.85.77 2.15.88 2.5.92.3.03.34.01 1.47 0h6.62c.27.03.48.26.48.54v1.75c0 .14-.06.28-.16.38s-.24.16-.38.16h-1.8a122.8 122.8 0 0 1-1.98-.02c-.46-.01-1.48-.02-2.88 0l-1.5.03a6.9 6.9 0 0 1-4.62-2.01c-1.55-1.64-1.7-3.58-1.74-4.1l.03-8.7a6.3 6.3 0 0 1 4.29-5.57 6.4 6.4 0 0 1 2.45-.33q3.92 0 7.83.01a6.2 6.2 0 0 1 3.64 1.22c1.6 1.2 2.13 2.8 2.3 3.5.12.5.2 1 .2 1.5z"/></svg>